# xmcd CD database file
#
# Track frame offsets:
#	150
#	17885
#	36493
#	55020
#	70090
#	98016
#
# Disc length: 1527 seconds
#
# Revision: 0
# Processed by: cddbd v1.5.2PL0 Copyright (c) Steve Scherf et al.
# Submitted via: CDex 1.70beta2
#
DISCID=4805f506
DTITLE=Marcus Bonfanti - Borrowed Time EP
DYEAR=2015
DGENRE=Blues
TTITLE0=Layla
TTITLE1=All she ever wants
TTITLE2=Snowflake
TTITLE3=John Henry
TTITLE4=Don't make me miss you
TTITLE5=The death of me
EXTD=YEAR: 2015
EXTT0=
EXTT1=
EXTT2=
EXTT3=
EXTT4=
EXTT5=
PLAYORDER=
